<?xml version="1.0" standalone="no"?><!-- Generator: Gravit.io --><svg xmlns="http://www.w3.org/2000/svg" xmlns:xlink="http://www.w3.org/1999/xlink" style="isolation:isolate" viewBox="0 0 280 280" width="280" height="280"><defs><clipPath id="_clipPath_L3wWUy2GjrtfOWMKmDNE7BL0PN5yaSqQ"><rect width="280" height="280"/></clipPath></defs><g clip-path="url(#_clipPath_L3wWUy2GjrtfOWMKmDNE7BL0PN5yaSqQ)"><path d=" M 104.969 203.947 C 107.608 203.947 109.695 206.033 109.695 208.672 C 109.695 211.311 107.608 213.398 104.969 213.398 C 102.33 213.398 100.244 211.311 100.244 208.672 C 100.244 206.033 102.33 203.947 104.969 203.947 Z  M 17.578 197.564 L 192.484 197.564 C 193.895 197.564 195 196.46 195 195.048 L 195 74.516 C 195 73.105 193.895 72 192.484 72 L 125.958 72 C 116.814 72 108.836 77.278 104.969 84.949 C 100.975 77.02 92.859 72.013 83.981 72 L 17.578 72 C 16.166 72 15.061 73.166 15.061 74.516 L 15.061 195.048 C 15.061 196.46 16.166 197.564 17.578 197.564 L 17.578 197.564 Z  M 107.547 95.505 C 107.547 85.317 115.832 77.032 126.019 77.032 L 189.906 77.032 L 189.906 192.532 L 107.547 192.532 L 107.547 95.505 Z  M 20.094 77.032 L 83.981 77.032 C 94.168 77.032 102.453 85.317 102.453 95.505 L 102.453 192.532 L 20.094 192.532 L 20.094 77.032 L 20.094 77.032 Z  M 206.292 83.845 L 199.541 83.845 L 199.541 89.184 L 203.653 89.184 L 203.653 217.08 L 6.347 217.08 L 6.347 89.184 L 10.459 89.184 L 10.459 83.845 L 3.708 83.845 C 2.235 83.845 1.069 85.011 1.069 86.483 L 1.069 219.719 C 1.069 221.192 2.235 222.358 3.708 222.358 L 206.292 222.358 C 207.765 222.358 208.931 221.192 208.931 219.719 L 208.931 86.545 C 208.931 85.072 207.765 83.845 206.292 83.845 L 206.292 83.845 Z  M 86.865 92.498 L 30.036 92.498 C 29.361 92.498 28.747 93.05 28.747 93.787 C 28.747 94.462 29.299 95.075 30.036 95.075 L 86.865 95.075 C 87.54 95.075 88.154 94.523 88.154 93.787 C 88.154 93.05 87.54 92.498 86.865 92.498 Z  M 86.865 107.288 L 30.036 107.288 C 29.361 107.288 28.747 107.84 28.747 108.577 C 28.747 109.313 29.299 109.866 30.036 109.866 L 86.865 109.866 C 87.54 109.866 88.154 109.313 88.154 108.577 C 88.154 107.84 87.54 107.288 86.865 107.288 Z  M 86.865 122.017 L 30.036 122.017 C 29.361 122.017 28.747 122.569 28.747 123.306 C 28.747 123.981 29.299 124.595 30.036 124.595 L 86.865 124.595 C 87.54 124.595 88.154 124.042 88.154 123.306 C 88.154 122.569 87.54 122.017 86.865 122.017 Z  M 86.865 181.056 L 30.036 181.056 C 29.361 181.056 28.747 181.608 28.747 182.344 C 28.747 183.081 29.299 183.633 30.036 183.633 L 86.865 183.633 C 87.54 183.633 88.154 183.081 88.154 182.344 C 88.154 181.608 87.54 181.056 86.865 181.056 Z  M 30.036 139.324 L 67.901 139.324 C 68.577 139.324 69.19 138.771 69.19 138.035 C 69.19 137.36 68.638 136.746 67.901 136.746 L 30.036 136.746 C 29.361 136.746 28.747 137.298 28.747 138.035 C 28.747 138.71 29.299 139.324 30.036 139.324 L 30.036 139.324 Z  M 30.036 154.053 L 67.901 154.053 C 68.577 154.053 69.19 153.5 69.19 152.764 C 69.19 152.089 68.638 151.475 67.901 151.475 L 30.036 151.475 C 29.361 151.475 28.747 152.027 28.747 152.764 C 28.747 153.5 29.299 154.053 30.036 154.053 L 30.036 154.053 Z  M 30.036 168.843 L 67.901 168.843 C 68.577 168.843 69.19 168.29 69.19 167.554 C 69.19 166.879 68.638 166.265 67.901 166.265 L 30.036 166.265 C 29.361 166.265 28.747 166.818 28.747 167.554 C 28.747 168.229 29.299 168.843 30.036 168.843 L 30.036 168.843 Z  M 179.964 122.017 L 123.135 122.017 C 122.46 122.017 121.846 122.569 121.846 123.306 C 121.846 123.981 122.399 124.595 123.135 124.595 L 179.964 124.595 C 180.639 124.595 181.253 124.042 181.253 123.306 C 181.253 122.569 180.639 122.017 179.964 122.017 Z  M 179.964 181.056 L 123.135 181.056 C 122.46 181.056 121.846 181.608 121.846 182.344 C 121.846 183.081 122.399 183.633 123.135 183.633 L 179.964 183.633 C 180.639 183.633 181.253 183.081 181.253 182.344 C 181.253 181.608 180.639 181.056 179.964 181.056 Z  M 179.964 136.746 L 142.037 136.746 C 141.362 136.746 140.748 137.298 140.748 138.035 C 140.748 138.71 141.301 139.324 142.037 139.324 L 179.903 139.324 C 180.578 139.324 181.192 138.771 181.192 138.035 C 181.253 137.36 180.639 136.746 179.964 136.746 L 179.964 136.746 Z  M 179.964 151.536 L 142.037 151.536 C 141.362 151.536 140.748 152.089 140.748 152.825 C 140.748 153.5 141.301 154.114 142.037 154.114 L 179.903 154.114 C 180.578 154.114 181.192 153.562 181.192 152.825 C 181.253 152.089 180.639 151.536 179.964 151.536 L 179.964 151.536 Z  M 179.964 166.265 L 142.037 166.265 C 141.362 166.265 140.748 166.818 140.748 167.554 C 140.748 168.229 141.301 168.843 142.037 168.843 L 179.903 168.843 C 180.578 168.843 181.192 168.29 181.192 167.554 C 181.253 166.818 180.639 166.265 179.964 166.265 L 179.964 166.265 Z  M 179.964 90.902 L 123.135 90.902 C 122.46 90.902 121.846 91.454 121.846 92.191 L 121.846 117.844 C 121.846 118.519 122.399 119.133 123.135 119.133 L 179.964 119.133 C 180.639 119.133 181.253 118.58 181.253 117.844 L 181.253 92.191 C 181.253 91.454 180.639 90.902 179.964 90.902 L 179.964 90.902 Z  M 178.675 116.494 L 124.362 116.494 L 124.362 93.418 L 178.675 93.418 L 178.675 116.494 Z  M 148.665 238.008 L 137.557 238.008 C 130.806 238.008 124.976 233.957 122.337 228.188 L 116.63 228.188 C 119.651 237.219 128.095 243.318 137.618 243.347 L 146.088 243.347 L 146.088 246.722 L 63.974 246.722 L 63.974 243.347 L 72.443 243.347 C 82.201 243.347 90.486 236.964 93.432 228.188 L 87.724 228.188 C 85.085 233.957 79.255 238.008 72.504 238.008 L 61.396 238.008 C 59.923 238.008 58.757 239.174 58.757 240.646 L 58.757 249.361 C 58.757 250.834 59.923 252 61.396 252 L 148.727 252 C 150.199 252 151.365 250.834 151.365 249.361 L 151.365 240.646 C 151.304 239.174 150.138 238.008 148.665 238.008 L 148.665 238.008 Z " fill="rgb(8,43,73)"/><g><path d=" M 252.947 101.538 L 216.1 65.879 C 214.121 64.894 211.132 64.894 208.16 64.894 L 163.373 64.894 L 163.373 65.134 C 161.241 65.552 159.3 66.644 157.835 68.248 L 121.191 108.964 C 117.434 113.146 117.777 119.582 121.957 123.341 C 123.817 125.037 126.246 125.974 128.764 125.967 C 131.549 125.967 134.314 124.839 136.337 122.596 L 167.444 89.323 L 167.444 125.967 L 212.232 125.967 L 212.232 158.54 L 273.305 158.54 L 273.305 101.538 L 252.947 101.538 Z " fill="rgb(255,183,77)"/><path d=" M 208.16 117.824 L 187.802 117.824 L 187.802 152.432 C 187.802 158.063 192.35 162.611 197.981 162.611 C 203.612 162.611 208.16 158.063 208.16 152.432 L 208.16 117.824 Z  M 187.802 113.752 L 167.444 113.752 L 167.444 148.361 C 167.444 153.992 171.992 158.54 177.623 158.54 C 183.254 158.54 187.802 153.992 187.802 148.361 L 187.802 113.752 Z  M 167.444 109.681 L 147.086 109.681 L 147.086 140.218 C 147.086 145.849 151.634 150.397 157.265 150.397 C 162.896 150.397 167.444 145.849 167.444 140.218 L 167.444 109.681 Z " fill="rgb(230,147,41)"/><path d=" M 129.18 155.087 L 123.023 149.761 L 117.677 155.93 C 116.214 157.635 116.407 160.203 118.109 161.671 C 119.813 163.138 122.382 162.946 123.85 161.243 L 129.18 155.087 Z " fill="rgb(69,90,100)"/><path d=" M 222.777 29.935 L 219.451 27.105 C 214.336 22.743 206.66 23.325 202.26 28.408 L 175.587 59.279 L 181.744 64.592 L 208.368 33.783 C 209.885 32.035 212.531 31.844 214.284 33.355 L 217.447 36.091 L 222.777 29.935 Z " fill="rgb(144,164,174)"/><path d=" M 236.498 27.15 C 231.393 22.745 223.684 23.31 219.276 28.412 L 177.786 74.502 L 196.263 90.483 L 237.76 44.377 C 242.166 39.272 241.601 31.562 236.498 27.154 L 236.498 27.15 Z " fill="rgb(51,105,30)"/><path d=" M 127.856 156.614 C 135.364 154.342 149.44 144.082 152.669 140.36 L 193.608 93.557 L 175.111 77.589 L 134.171 124.391 C 130.959 128.113 122.865 143.528 121.704 151.288 L 127.856 156.614 Z " fill="rgb(76,175,80)"/><path d=" M 177.786 74.515 L 196.263 90.483 L 190.937 96.64 L 172.452 80.687 L 177.786 74.515 Z " fill="rgb(255,255,0)"/><path d=" M 139.485 126.415 C 137.335 133.174 141.871 139.057 147.738 141.301 L 191.206 153.735 C 194.134 154.884 208.307 161.325 218.498 157.347 C 229.886 152.909 239.682 143.573 239.682 143.573 L 212.232 109.681 L 190.396 121.944 L 157.265 118.333 C 147.913 116.79 141.793 119.554 139.485 126.411" fill="rgb(255,183,77)"/><path d=" M 147.355 135.983 C 143.647 134.309 141.996 129.946 143.666 126.236 C 145.336 122.531 149.692 120.88 153.397 122.547 C 157.123 124.216 151.077 137.64 147.355 135.983 Z " fill="rgb(255,205,210)"/><path d=" M 190.937 96.64 L 190.921 96.623 L 170.657 119.795 L 190.396 121.944 L 212.232 109.681 L 204.089 93.443 L 196.882 89.799 L 196.263 90.483 L 193.608 93.57 L 193.482 93.696 L 190.937 96.64 Z " fill="rgb(230,147,41)"/></g></g></svg>